<svg enable-background="new 0 0 73 73" height="73" viewBox="0 0 73 73" width="73" xmlns="http://www.w3.org/2000/svg"><path clip-rule="evenodd" d="m72 19.94c0-.72-.01-1.45-.03-2.17-.04-1.58-.14-3.17-.42-4.73-.28-1.58-.75-3.06-1.48-4.5-.72-1.41-1.66-2.71-2.78-3.83s-2.42-2.06-3.83-2.78c-1.44-.73-2.91-1.2-4.49-1.48-1.56-.28-3.15-.37-4.73-.42-.73-.01-1.46-.02-2.18-.03-.86 0-1.72 0-2.58 0h-26.96c-.86 0-1.72 0-2.58 0-.72 0-1.45.01-2.17.03-1.58.04-3.17.14-4.73.42-1.58.29-3.06.75-4.49 1.49-1.42.72-2.71 1.66-3.83 2.78s-2.07 2.41-2.79 3.83c-.73 1.44-1.2 2.91-1.48 4.5-.28 1.56-.37 3.15-.42 4.73-.01.72-.02 1.44-.03 2.17v2.58 26.96 2.58c0 .72.01 1.45.03 2.17.04 1.58.14 3.17.42 4.73.28 1.58.75 3.06 1.48 4.5.72 1.41 1.66 2.71 2.78 3.83s2.42 2.06 3.83 2.78c1.44.73 2.91 1.2 4.49 1.48 1.56.28 3.15.37 4.73.42.72.02 1.45.03 2.17.03.86.01 1.72 0 2.58 0h26.95 2.58c.72 0 1.45-.01 2.17-.03 1.58-.04 3.17-.14 4.73-.42 1.58-.28 3.06-.75 4.49-1.48 1.41-.72 2.71-1.66 3.83-2.78s2.06-2.41 2.78-3.83c.73-1.44 1.2-2.91 1.48-4.5.28-1.56.37-3.15.42-4.73.02-.72.03-1.45.03-2.17.01-.86 0-1.72 0-2.58v-26.97c.03-.86.03-1.72.03-2.58zm-19.29 26.91c0 .91-.01 1.74-.2 2.65-.19.89-.53 1.72-1.05 2.47s-1.19 1.36-1.97 1.82c-.79.47-1.62.73-2.5.91-1.66.33-2.79.41-3.86.2-1.03-.21-1.9-.68-2.6-1.32-1.03-.95-1.68-2.23-1.82-3.56-.16-1.57.36-3.24 1.53-4.48.59-.62 1.34-1.11 2.34-1.5 1.04-.4 2.19-.65 3.96-1 .47-.09.93-.19 1.4-.28.61-.12 1.14-.28 1.56-.8.43-.52.43-1.16.43-1.78v-15.86c0-1.21-.54-1.54-1.7-1.32-.83.16-18.62 3.75-18.62 3.75-1 .24-1.36.57-1.36 1.82v23.23c0 .91-.05 1.74-.24 2.65-.19.89-.53 1.72-1.05 2.47s-1.19 1.36-1.97 1.82c-.79.47-1.62.74-2.5.92-1.66.33-2.79.41-3.86.2-1.03-.21-1.9-.69-2.6-1.33-1.03-.95-1.63-2.23-1.78-3.56-.16-1.57.31-3.24 1.49-4.48.59-.62 1.34-1.11 2.34-1.5 1.04-.4 2.19-.65 3.96-1 .47-.09.93-.19 1.4-.28.61-.12 1.14-.28 1.56-.8s.47-1.13.47-1.75c0-4.92 0-26.79 0-26.79 0-.36.03-.6.05-.72.09-.56.31-1.05.72-1.39.34-.28.78-.48 1.33-.6h.01l21.42-4.33c.19-.04 1.73-.31 1.91-.33 1.16-.1 1.81.66 1.81 1.89z" fill="#fff" fill-rule="evenodd"/></svg>