<svg xmlns="http://www.w3.org/2000/svg" xmlns:xlink="http://www.w3.org/1999/xlink" width="500" zoomAndPan="magnify" viewBox="0 0 375 74.999997" height="100" preserveAspectRatio="xMidYMid meet" version="1.2"><defs><clipPath id="cb4910d4a3"><path d="M 2.871094 2.550781 L 72.621094 2.550781 L 72.621094 72.300781 L 2.871094 72.300781 Z M 2.871094 2.550781 "/></clipPath></defs><g id="55cd5b1f30"><g clip-rule="nonzero" clip-path="url(#cb4910d4a3)"><path style=" stroke:none;fill-rule:nonzero;fill:#ffffff;fill-opacity:1;" d="M 38.640625 3.078125 L 36.875 3.230469 L 35.113281 3.378906 L 35.71875 3.421875 L 38.640625 3.078125 M 42.734375 6.878906 L 42.527344 6.890625 L 42.570312 6.902344 L 42.734375 6.878906 M 41.765625 6.945312 L 39.476562 7.101562 L 40.34375 7.214844 L 41.933594 6.992188 L 41.765625 6.945312 M 36.265625 7.769531 L 36.332031 7.777344 L 36.089844 7.808594 L 36.089844 7.8125 L 36.265625 7.769531 M 33.46875 7.273438 L 32.40625 7.601562 L 31.347656 7.925781 L 31.960938 7.480469 L 33.46875 7.273438 M 34.023438 8.359375 L 33.984375 8.363281 L 33.949219 8.363281 L 33.691406 8.449219 C 33.800781 8.421875 33.914062 8.390625 34.023438 8.359375 M 39.765625 8.222656 L 42.113281 8.527344 L 42.214844 8.640625 L 39.765625 8.257812 L 37.3125 8.488281 L 34.828125 8.34375 L 39.765625 8.222656 M 44.894531 8.917969 L 44.957031 8.941406 L 44.945312 8.941406 C 44.925781 8.933594 44.910156 8.925781 44.894531 8.917969 M 37.652344 2.59375 L 44.382812 4.179688 L 47.9375 4.695312 L 52.0625 6.585938 L 57.015625 9.132812 L 50.90625 5.429688 L 49.066406 4.660156 L 43.125 2.867188 L 37.652344 2.59375 M 45.210938 9.058594 L 45.457031 9.117188 L 45.570312 9.160156 L 45.359375 9.125 L 45.210938 9.058594 M 42.570312 6.902344 L 41.933594 6.992188 L 50.429688 9.296875 L 50.089844 9.101562 L 45.308594 7.453125 L 42.570312 6.902344 M 36.011719 7.734375 L 36.253906 7.765625 L 36.078125 7.8125 L 35.769531 7.855469 L 32.046875 8.796875 L 36.015625 7.828125 L 34.023438 8.359375 L 34.640625 8.347656 L 32.574219 8.933594 L 32.210938 8.964844 L 31.894531 9.109375 L 31.675781 9.128906 L 33.691406 8.449219 L 31.328125 9.082031 L 31.203125 9.171875 L 29.511719 9.324219 L 29.921875 9.140625 L 36.011719 7.734375 M 30.910156 9.386719 L 30.890625 9.398438 L 30.871094 9.414062 C 30.785156 9.4375 30.695312 9.464844 30.605469 9.488281 C 30.707031 9.453125 30.808594 9.421875 30.910156 9.386719 M 50.429688 9.296875 L 50.613281 9.398438 L 50.796875 9.503906 L 50.863281 9.414062 L 50.429688 9.296875 M 38.09375 4.199219 L 30.699219 6.199219 L 24.332031 9.175781 L 23.863281 9.511719 L 24.511719 9.25 L 24.808594 9.039062 L 31.371094 6.078125 L 38.015625 4.347656 L 38.09375 4.199219 M 27.589844 6.804688 L 25.773438 7.019531 L 20.765625 9.691406 L 26.503906 7.058594 L 21.753906 9.46875 L 27.589844 6.804688 M 26.085938 9.179688 L 25.546875 9.75 L 24.265625 10.164062 C 24.871094 9.835938 25.476562 9.507812 26.085938 9.179688 M 28.90625 10.0625 L 27.738281 10.550781 L 27.988281 10.371094 L 28.90625 10.0625 M 49.402344 10.511719 L 49.546875 10.585938 L 49.695312 10.660156 C 49.78125 10.675781 49.871094 10.691406 49.957031 10.710938 C 49.773438 10.644531 49.585938 10.578125 49.402344 10.511719 M 51.738281 10.996094 L 52.925781 11.257812 L 51.847656 11.058594 L 51.738281 10.996094 M 26.339844 11.570312 L 26.25 11.632812 L 26.164062 11.699219 C 26.257812 11.65625 26.351562 11.613281 26.445312 11.570312 C 26.410156 11.570312 26.375 11.570312 26.339844 11.570312 M 47.636719 10.089844 L 49.152344 10.425781 L 49.402344 10.511719 L 49.285156 10.453125 L 50.324219 10.683594 L 50.507812 10.8125 L 49.957031 10.710938 L 50.789062 11.003906 L 51.945312 11.796875 L 51.230469 11.4375 L 50.746094 11.101562 L 50.964844 11.300781 L 49.695312 10.660156 L 47.925781 10.335938 L 47.425781 10.09375 L 47.636719 10.089844 M 59.667969 11.964844 L 59.675781 11.96875 L 59.683594 11.976562 L 59.675781 11.96875 L 59.667969 11.964844 M 57.710938 11.699219 L 57.652344 11.707031 L 57.59375 11.710938 L 58.375 12.324219 C 58.15625 12.117188 57.933594 11.90625 57.710938 11.699219 M 57.164062 11.753906 L 57.546875 12.105469 L 57.925781 12.453125 C 57.636719 12.226562 57.347656 11.996094 57.058594 11.765625 L 57.164062 11.753906 M 30.40625 9.753906 L 30.308594 9.824219 L 26.445312 11.570312 L 27.539062 11.59375 L 27.417969 11.894531 L 25.277344 12.34375 L 26.164062 11.699219 L 25.128906 12.164062 L 24.84375 12.433594 L 24.820312 12.4375 L 24.675781 12.515625 L 25.863281 11.558594 L 26.339844 11.570312 L 27.5625 10.679688 L 30.40625 9.753906 M 22.601562 10.621094 L 22.210938 10.796875 L 21.824219 10.972656 C 21.003906 11.558594 20.179688 12.148438 19.359375 12.734375 L 20.929688 11.820312 L 22.601562 10.621094 M 19.359375 12.734375 L 18.535156 13.214844 L 18.320312 13.433594 L 18.332031 13.5625 L 18.679688 13.21875 L 19.359375 12.734375 M 54.542969 9.089844 L 60.316406 13.734375 L 60.351562 13.742188 L 57.769531 10.773438 L 54.542969 9.089844 M 23.8125 13.410156 L 23.132812 14.050781 C 23.058594 14.085938 22.980469 14.121094 22.90625 14.15625 L 23.140625 13.898438 L 23.8125 13.410156 M 18.332031 13.5625 L 17.371094 14.507812 C 17.699219 14.308594 18.03125 14.109375 18.363281 13.910156 C 18.351562 13.792969 18.34375 13.679688 18.332031 13.5625 M 18.933594 12.804688 L 17.460938 13.933594 L 16.628906 14.957031 L 17.132812 14.652344 L 18.320312 13.433594 L 18.316406 13.34375 L 18.535156 13.214844 L 18.933594 12.804688 M 20.289062 14.296875 L 19.78125 14.785156 L 19.273438 15.269531 L 19.828125 14.621094 L 20.289062 14.296875 M 59.683594 11.976562 L 61.824219 14.355469 L 63.96875 16.734375 C 63.304688 15.75 62.640625 14.765625 61.972656 13.78125 L 59.683594 11.976562 M 51.539062 16.433594 L 51.675781 16.503906 L 51.808594 16.574219 L 52.269531 17.070312 L 52.050781 16.929688 L 51.539062 16.433594 M 18.894531 10.539062 L 16.875 11.839844 L 12.242188 17.226562 L 15.949219 13.035156 L 19.332031 10.832031 L 18.894531 10.539062 M 57.757812 17.492188 L 57.960938 17.648438 L 57.773438 17.519531 L 57.757812 17.492188 M 63.054688 16.851562 L 63.671875 17.6875 L 64.289062 18.527344 L 64.078125 18.03125 L 63.054688 16.851562 M 59.957031 15.492188 L 60.148438 16.183594 L 60.144531 16.210938 L 59.980469 16.046875 L 60.761719 17.898438 L 61.464844 18.546875 L 59.957031 15.492188 M 16.644531 18.695312 L 16.578125 18.8125 L 16.574219 18.816406 L 16.644531 18.695312 M 52.871094 15.328125 L 56.613281 18.515625 L 56.824219 18.863281 L 53.71875 16.28125 L 52.871094 15.328125 M 59.382812 14.535156 L 60.496094 16.15625 L 61.605469 17.777344 L 62.386719 18.898438 C 62.019531 18.03125 61.652344 17.160156 61.289062 16.292969 L 59.382812 14.535156 M 62.082031 17.160156 L 62.71875 18.105469 L 63.355469 19.054688 L 62.894531 18.269531 L 62.082031 17.160156 M 61.515625 19.496094 L 61.515625 19.5 L 61.519531 19.503906 C 61.527344 19.511719 61.539062 19.523438 61.546875 19.53125 L 61.515625 19.496094 M 57.042969 19.667969 L 57.0625 19.695312 L 57.078125 19.722656 L 57.050781 19.671875 L 57.042969 19.667969 M 21.363281 17.847656 L 21.246094 17.90625 L 21.132812 17.964844 C 20.414062 18.601562 19.695312 19.242188 18.976562 19.878906 C 19.625 19.394531 20.269531 18.90625 20.917969 18.421875 L 21.363281 17.847656 M 40.253906 21.277344 L 40.035156 21.316406 L 40.074219 21.285156 C 40.132812 21.28125 40.191406 21.28125 40.253906 21.277344 M 42.699219 21.1875 L 42.21875 21.394531 L 41.730469 21.222656 L 42.699219 21.1875 M 36.0625 21.605469 L 35.105469 22.128906 L 34.359375 22.253906 L 34.675781 21.839844 L 36.0625 21.605469 M 68.351562 17.492188 L 69.300781 20.183594 L 70.25 22.878906 C 70.160156 22.480469 70.074219 22.082031 69.984375 21.6875 L 68.351562 17.492188 M 60.457031 11.78125 L 63.800781 15.714844 L 65.75 19.445312 L 67.035156 22.257812 L 67.507812 22.902344 L 67.53125 22.96875 L 67.25 21.421875 L 64.453125 16.472656 L 60.457031 11.78125 M 32.964844 22.933594 L 32.644531 23.339844 L 32.628906 23.351562 L 32.023438 23.917969 L 32.964844 22.933594 M 21.84375 17.234375 L 21.363281 17.847656 L 22.339844 17.355469 L 20.917969 18.421875 L 20.1875 19.363281 L 19.703125 20.449219 L 17.195312 23.589844 L 16.214844 25.390625 L 16.515625 24.46875 L 19.585938 20.0625 L 16.167969 24.671875 L 18.59375 20.363281 L 20.394531 18.0625 L 21.84375 17.234375 M 66.066406 22.933594 L 66.167969 23.417969 L 67.195312 26.3125 L 66.875 24.683594 L 66.207031 23.085938 L 66.066406 22.933594 M 56.402344 18.613281 L 57.011719 19.167969 L 59.527344 23.265625 L 59.925781 24.410156 L 57.078125 19.722656 L 60.496094 26.042969 L 60.679688 26.558594 L 59.140625 24.390625 L 57 19.820312 L 56.367188 19.199219 L 57.042969 19.667969 L 56.402344 18.613281 M 67.195312 26.3125 L 67.21875 26.417969 L 67.238281 26.523438 L 67.449219 27.019531 C 67.363281 26.785156 67.28125 26.546875 67.195312 26.3125 M 66.414062 24.570312 L 66.570312 25.296875 L 66.722656 26.027344 L 67.386719 27.285156 C 67.335938 27.03125 67.289062 26.777344 67.238281 26.523438 L 66.414062 24.570312 M 16.050781 24.878906 L 15.441406 26.816406 C 15.335938 27.011719 15.230469 27.207031 15.125 27.402344 L 15.511719 25.832031 L 16.050781 24.878906 M 12.738281 27.332031 L 12.691406 27.503906 L 12.625 27.625 L 12.738281 27.332031 M 67.449219 27.019531 L 67.707031 27.746094 C 67.6875 27.664062 67.671875 27.585938 67.652344 27.503906 L 67.449219 27.019531 M 67.863281 28.789062 L 67.851562 29.113281 L 67.835938 29.433594 L 67.914062 29.628906 C 67.898438 29.351562 67.882812 29.070312 67.863281 28.789062 M 28.78125 29.855469 L 28.765625 29.902344 L 28.746094 29.949219 C 28.746094 29.9375 28.746094 29.925781 28.742188 29.917969 C 28.753906 29.894531 28.765625 29.875 28.78125 29.855469 M 29.570312 28.527344 L 28.929688 31.125 L 28.839844 30.539062 L 29.453125 28.722656 L 29.570312 28.527344 M 28.859375 28.5 L 28.472656 30.019531 L 28.082031 31.539062 L 28.550781 28.996094 L 28.859375 28.5 M 67.914062 29.628906 L 67.976562 30.691406 L 68.492188 31.9375 L 68.144531 30.214844 L 67.914062 29.628906 M 61.164062 28.429688 L 61.390625 29.496094 L 61.613281 30.5625 C 61.550781 30.390625 61.484375 30.21875 61.421875 30.042969 L 61.644531 32.394531 C 61.484375 31.074219 61.324219 29.75 61.164062 28.429688 M 61.617188 27.21875 L 62.214844 29.109375 L 62.808594 31.003906 L 63.058594 32.605469 L 61.96875 28.621094 L 61.617188 27.21875 M 67.800781 30.265625 L 67.761719 31.097656 L 67.753906 31.742188 L 68.117188 33.09375 L 67.976562 30.691406 L 67.800781 30.265625 M 5.738281 26.417969 L 5.71875 26.996094 L 5.699219 27.570312 C 5.742188 27.925781 5.785156 28.28125 5.828125 28.636719 C 5.214844 30.351562 4.605469 32.070312 3.992188 33.785156 L 5.738281 26.417969 M 70.25 22.878906 L 71.5625 28.710938 L 72.230469 34.734375 L 71.753906 27.851562 L 71.183594 26.082031 L 71.089844 25.257812 L 70.25 22.878906 M 37.5625 34.882812 L 37.558594 34.933594 L 37.558594 34.984375 L 37.550781 35.003906 C 37.554688 34.964844 37.558594 34.921875 37.5625 34.882812 M 62.25 35.183594 L 62.265625 35.328125 L 62.285156 35.46875 L 62.257812 35.667969 L 62.210938 35.410156 L 62.25 35.183594 M 40.066406 35.429688 L 39.914062 35.847656 L 39.761719 36.269531 L 39.75 35.96875 C 39.855469 35.789062 39.960938 35.609375 40.066406 35.429688 M 62.144531 35.773438 L 62.164062 36.472656 L 62.152344 36.578125 C 62.132812 36.410156 62.113281 36.242188 62.089844 36.070312 L 62.144531 35.773438 M 70.230469 33.886719 L 70.308594 36.800781 L 70.410156 35.5625 C 70.351562 35.003906 70.289062 34.445312 70.230469 33.886719 M 63.355469 34.542969 L 63.53125 35.660156 L 63.703125 36.777344 C 63.6875 36.992188 63.671875 37.207031 63.652344 37.421875 L 63.355469 34.542969 M 40.1875 37.285156 L 40.007812 37.597656 L 39.824219 37.914062 L 39.808594 37.472656 C 39.933594 37.410156 40.0625 37.347656 40.1875 37.285156 M 52.800781 37.796875 L 52.808594 37.828125 L 52.75 37.980469 C 52.765625 37.917969 52.78125 37.859375 52.800781 37.796875 M 62 36.578125 L 62.117188 36.871094 L 61.964844 38.164062 C 61.945312 37.945312 61.925781 37.726562 61.90625 37.507812 C 61.902344 37.390625 61.898438 37.273438 61.894531 37.15625 L 62 36.578125 M 62.429688 37.636719 L 62.519531 37.855469 L 62.53125 38.007812 L 62.410156 38.695312 L 62.371094 38.375 L 62.445312 38.078125 C 62.441406 37.933594 62.4375 37.785156 62.429688 37.636719 M 39.304688 37.316406 L 39.585938 37.496094 L 39.65625 38.199219 L 39.046875 39.25 L 39.304688 37.316406 M 69.785156 37.496094 L 69.652344 38.347656 C 69.59375 39.039062 69.535156 39.726562 69.476562 40.414062 C 69.605469 40.011719 69.734375 39.609375 69.863281 39.207031 L 69.785156 37.496094 M 61.175781 40.808594 L 61.175781 40.816406 C 61.175781 40.824219 61.171875 40.828125 61.171875 40.835938 C 61.171875 40.828125 61.175781 40.820312 61.175781 40.808594 M 62.234375 38.902344 L 62.277344 40.4375 L 62.324219 41.976562 C 62.246094 41.140625 62.167969 40.304688 62.089844 39.46875 C 62.136719 39.28125 62.1875 39.089844 62.234375 38.902344 M 26.75 43.960938 L 26.808594 44.1875 L 26.867188 44.417969 C 26.847656 44.402344 26.824219 44.386719 26.800781 44.371094 C 26.785156 44.234375 26.765625 44.097656 26.75 43.960938 M 27.589844 44.757812 L 27.703125 44.917969 L 27.816406 45.082031 L 27.628906 44.949219 C 27.613281 44.886719 27.601562 44.820312 27.589844 44.757812 M 71.1875 36.34375 L 70.671875 37.351562 L 70.390625 39.921875 L 70.425781 41.152344 L 70.175781 41.910156 L 70.058594 42.988281 L 69.734375 45.351562 L 70.546875 42.9375 L 71.03125 42.382812 L 71.1875 36.34375 M 6.089844 33.5 L 5.441406 37.832031 L 5.492188 39.488281 L 6.972656 45.570312 L 6.367188 42.035156 L 5.8125 38.238281 L 6.089844 33.5 M 25.804688 44.578125 L 26.089844 44.933594 L 26.316406 45.628906 L 26.105469 45.484375 L 25.804688 44.578125 M 27.027344 46.105469 L 27.035156 46.117188 L 27.046875 46.128906 L 27.027344 46.117188 L 27.027344 46.105469 M 26.9375 45.425781 L 27.195312 45.660156 L 27.378906 46.359375 L 27.144531 46.199219 L 27.015625 46.011719 L 26.9375 45.425781 M 28.40625 46.765625 L 28.464844 46.816406 L 28.527344 46.871094 L 28.6875 47.257812 L 28.613281 47.203125 L 28.40625 46.765625 M 12.945312 47.253906 L 12.953125 47.277344 L 12.945312 47.253906 M 5.972656 44.089844 L 6.828125 46.003906 L 7.6875 47.921875 C 7.695312 47.929688 7.703125 47.9375 7.710938 47.945312 L 5.972656 44.089844 M 66.863281 43.65625 L 66.523438 44.5 L 65.417969 46.832031 L 65.066406 48.007812 L 65.539062 48.140625 L 66.863281 43.65625 M 58.570312 46.664062 L 58.335938 47.199219 L 58.105469 47.730469 L 57.433594 48.921875 C 57.8125 48.171875 58.191406 47.417969 58.570312 46.664062 M 70.308594 36.800781 L 69.808594 42.851562 L 68.695312 45.785156 L 67.464844 49.34375 L 67.960938 48.601562 L 70.175781 41.910156 L 70.390625 39.921875 L 70.308594 36.800781 M 13.121094 46.683594 L 14.730469 49.691406 C 14.5625 49.476562 14.394531 49.261719 14.222656 49.046875 L 13.121094 46.683594 M 27.160156 49.886719 L 28.523438 51.15625 L 28.265625 51.136719 L 27.476562 50.410156 L 27.160156 49.886719 M 26.785156 47.523438 L 26.960938 47.609375 L 27.429688 49.050781 L 29.125 51.210938 L 28.96875 51.199219 L 27.472656 49.597656 L 26.785156 47.523438 M 28.816406 50.667969 L 29.128906 50.976562 L 29.324219 51.230469 L 29.230469 51.222656 L 28.816406 50.667969 M 33.007812 51.222656 L 33.578125 51.523438 L 33.242188 51.578125 L 33.007812 51.222656 M 29.582031 51.578125 L 29.589844 51.578125 L 29.597656 51.582031 L 29.609375 51.597656 L 29.582031 51.578125 M 67.464844 49.34375 L 66.746094 50.421875 C 66.679688 50.945312 66.617188 51.46875 66.550781 51.988281 C 66.855469 51.109375 67.160156 50.226562 67.464844 49.34375 M 34.058594 51.917969 L 34.246094 52.144531 L 34.140625 52.148438 L 33.53125 52.019531 L 33.53125 52.015625 L 34.058594 51.917969 M 14.730469 51.210938 L 14.933594 51.464844 L 15.375 52.4375 L 14.730469 51.210938 M 63.5625 48.308594 L 61.097656 52.523438 L 60.851562 52.644531 L 61.3125 51.707031 L 63.5625 48.308594 M 30.722656 53.207031 L 31.191406 53.644531 L 31.554688 54.113281 L 31.492188 54.09375 L 31.160156 53.792969 L 30.722656 53.207031 M 63.1875 54.167969 L 63.15625 54.21875 L 63.121094 54.273438 C 63.128906 54.265625 63.136719 54.257812 63.144531 54.25 L 63.1875 54.167969 M 16.90625 54.097656 L 17.140625 54.261719 L 17.167969 54.292969 C 17.078125 54.230469 16.992188 54.164062 16.90625 54.097656 M 60.621094 55.285156 L 60.371094 55.574219 L 60.335938 55.59375 L 60.316406 55.550781 L 60.621094 55.285156 M 66.257812 48.371094 L 63.1875 54.167969 L 65.25 51.011719 L 64.367188 53.195312 L 63.144531 54.25 L 62.585938 55.304688 L 62.246094 55.609375 L 63.121094 54.273438 L 62.800781 54.546875 L 66.257812 48.371094 M 58.089844 56.449219 L 57.960938 56.613281 L 57.835938 56.777344 C 57.828125 56.78125 57.820312 56.785156 57.816406 56.789062 L 58.089844 56.449219 M 20.660156 56.90625 L 21.101562 57.125 L 21.160156 57.191406 L 20.75 56.972656 L 20.660156 56.90625 M 58.253906 57.328125 L 57.871094 57.707031 L 57.492188 58.082031 C 57.433594 58.101562 57.371094 58.121094 57.3125 58.140625 C 57.625 57.871094 57.941406 57.601562 58.253906 57.328125 M 21.449219 58.078125 L 22.640625 58.824219 L 22.671875 58.859375 L 21.453125 58.085938 L 21.449219 58.078125 M 50.203125 59.226562 L 47.636719 60.570312 L 48.59375 60.003906 L 50.203125 59.226562 M 61.828125 53.910156 L 61.105469 54.734375 L 61.40625 54.214844 L 60.207031 55.355469 L 59.980469 54.953125 L 59.90625 55.019531 L 59.867188 55.4375 L 58.78125 56.714844 L 57.269531 58.15625 L 56.503906 58.410156 L 56.371094 58.578125 L 56.492188 58.414062 L 55.960938 58.589844 L 54.847656 59.324219 L 53.050781 60.757812 L 55.59375 59.625 L 57.007812 58.402344 L 56.613281 58.78125 L 59.609375 56.441406 L 58.386719 57.839844 L 59.121094 57.335938 L 58.019531 58.660156 L 60.515625 55.738281 L 60.914062 55.429688 L 61.914062 54.148438 L 61.828125 53.910156 M 71.753906 46.574219 L 68.761719 53.261719 L 67.261719 55.699219 L 67.15625 57.027344 L 63.355469 60.976562 L 64.398438 60.46875 L 68.53125 55.878906 L 70.851562 52.308594 L 69.84375 53.371094 L 71.753906 46.574219 M 51.988281 60.234375 L 51.8125 60.398438 L 50.628906 60.992188 L 50.363281 61.011719 L 51.988281 60.234375 M 11.359375 57.78125 L 11.527344 58.355469 L 11.695312 58.925781 L 14.417969 61.34375 C 14.351562 61.1875 14.285156 61.027344 14.21875 60.871094 C 13.265625 59.839844 12.3125 58.8125 11.359375 57.78125 M 45.277344 61.171875 L 46.167969 61.421875 L 45.621094 61.648438 L 45.167969 61.535156 L 44.625 61.539062 L 44.417969 61.476562 L 45.277344 61.171875 M 25.785156 62.273438 L 25.800781 62.277344 L 25.820312 62.285156 L 25.785156 62.273438 M 48.464844 62.078125 L 47.316406 62.652344 L 46.03125 62.636719 L 46.472656 62.488281 L 48.464844 62.078125 M 42.882812 62.234375 L 43.820312 62.355469 L 42.542969 62.667969 L 41.273438 62.582031 L 42.085938 62.296875 L 42.882812 62.234375 M 62.90625 58.847656 L 62.496094 59.050781 L 62.082031 59.253906 L 57.523438 63.480469 C 59.316406 61.9375 61.109375 60.390625 62.90625 58.847656 M 71.65625 53.457031 L 70.175781 55.457031 L 68.691406 57.453125 L 62.773438 63.511719 L 67.511719 59.34375 L 71.65625 53.457031 M 43.070312 63.65625 L 43.09375 63.65625 C 43.082031 63.660156 43.070312 63.660156 43.058594 63.660156 L 43.070312 63.65625 M 62.773438 63.511719 L 62.648438 63.621094 L 62.519531 63.734375 C 62.546875 63.71875 62.574219 63.703125 62.601562 63.6875 C 62.660156 63.628906 62.714844 63.570312 62.773438 63.511719 M 7.710938 47.945312 L 9.144531 51.117188 L 14.105469 57.613281 L 17.964844 61.230469 L 21.359375 63.449219 L 22.78125 63.875 L 20.316406 62.199219 L 18.210938 60.261719 L 16.269531 59.074219 L 10.773438 52.664062 L 7.953125 48.1875 L 7.710938 47.945312 M 25.484375 61.898438 L 25.820312 62.285156 L 27.210938 62.894531 L 27.15625 62.878906 L 25.820312 62.285156 L 25.835938 62.304688 L 26.734375 62.757812 L 26.054688 62.558594 L 26.269531 62.808594 L 29.382812 64.003906 L 29.839844 64.066406 L 28.886719 63.644531 L 28.914062 63.640625 L 29.914062 64.078125 L 30.183594 64.113281 L 29.246094 63.597656 L 29.515625 63.566406 L 28.808594 63.359375 L 28.15625 63 L 25.484375 61.898438 M 33.570312 64.566406 L 33.609375 64.578125 L 33.53125 64.566406 L 33.53125 64.570312 C 33.542969 64.566406 33.554688 64.566406 33.570312 64.566406 M 33.628906 64.5625 L 38.839844 64.722656 L 39.175781 64.757812 L 35.933594 64.894531 L 33.910156 64.621094 L 33.613281 64.566406 L 33.628906 64.5625 M 19.742188 58.957031 L 25.199219 62.308594 L 26.054688 62.558594 L 25.835938 62.304688 L 22.878906 60.824219 L 25.484375 61.898438 L 24.886719 61.210938 L 28.15625 63 L 29.515625 63.566406 L 32.472656 64.425781 L 30.183594 64.113281 L 30.910156 64.511719 L 29.914062 64.074219 L 29.839844 64.066406 L 31.800781 64.933594 L 29.382812 64.003906 L 28.136719 63.832031 L 22.332031 60.917969 L 19.742188 58.957031 M 54.039062 63.414062 L 51.191406 64.722656 L 51.050781 65 L 48.691406 65.371094 L 49.460938 64.851562 L 51.269531 64.308594 L 51.640625 64.089844 L 54.039062 63.414062 M 57.625 64.632812 L 54.039062 66.109375 L 55.199219 65.78125 C 56.007812 65.398438 56.816406 65.015625 57.625 64.632812 M 32.410156 65.167969 L 40.3125 66.695312 L 42.644531 67.035156 L 40.855469 67.285156 L 34.59375 66.007812 L 32.410156 65.167969 M 62.519531 63.734375 L 56.082031 67.429688 L 60.859375 65.195312 L 62.519531 63.734375 M 35.296875 5.171875 L 30.511719 7.046875 C 30.371094 6.894531 28.371094 7.628906 24.511719 9.25 L 22.601562 10.621094 L 24.304688 9.855469 C 21.523438 11.394531 19.804688 12.476562 19.15625 13.089844 L 14.050781 18.507812 L 17.371094 14.507812 L 15.578125 16.246094 L 16.628906 14.957031 L 15.78125 15.222656 L 20.164062 11.542969 L 18.933594 12.804688 L 20.621094 11.515625 C 21.144531 11.457031 22.226562 10.792969 23.863281 9.511719 L 22.390625 10.105469 L 23.007812 9.242188 L 19.800781 11.355469 L 14.890625 15.953125 L 11.046875 21.289062 L 7.730469 29.535156 L 9.964844 22.671875 L 9.589844 22.609375 L 8.640625 24.488281 L 7.207031 29.738281 L 6.25 36.398438 L 6.976562 43.523438 L 9.96875 50.03125 L 14.066406 55.949219 L 19.28125 60.816406 L 25.5 64.574219 L 32.402344 66.808594 L 39.425781 67.433594 C 37.296875 67.5625 34.796875 67.53125 31.921875 67.335938 L 39.507812 67.855469 L 45.910156 67.339844 L 47.019531 66.769531 L 55.875 63.863281 L 62.082031 59.253906 L 66.976562 54.722656 L 69.519531 49.417969 L 63.6875 56.574219 L 58.5 61.25 L 57.113281 61.5 L 60.984375 58.816406 L 63.765625 56.160156 C 64.066406 55.484375 64.109375 55.15625 63.898438 55.171875 L 63.148438 55.800781 L 66.746094 50.421875 L 69.042969 44.265625 L 69.707031 41.277344 L 69.386719 41.507812 L 69.476562 40.414062 L 69.191406 41.316406 L 69.652344 38.347656 L 69.765625 37.027344 L 69.785156 37.496094 L 70.035156 35.890625 C 69.84375 34.761719 69.773438 32.851562 69.828125 30.152344 L 70.230469 33.886719 L 70.140625 30.496094 L 69.726562 29.234375 L 69.742188 29.347656 L 67.53125 22.96875 L 67.644531 23.59375 L 67.035156 22.257812 L 64.289062 18.527344 L 66.207031 23.085938 L 66.660156 23.582031 L 67.652344 27.503906 L 69.484375 31.527344 L 69.578125 32.871094 L 69.09375 33.859375 L 68.769531 37.976562 C 68.835938 35.773438 68.617188 34.144531 68.117188 33.09375 L 68.25 35.34375 L 67.328125 42.078125 L 66.863281 43.65625 L 68.09375 40.601562 L 65.925781 47.414062 L 66.433594 46.640625 L 68.726562 38.511719 L 68.636719 39.644531 L 66.644531 46.699219 L 63.09375 53.617188 L 63.980469 51.503906 L 61.914062 54.148438 L 62.0625 54.5625 L 60.914062 55.429688 L 59.144531 57.691406 C 58.148438 58.648438 57.601562 59.035156 57.507812 58.847656 L 58.386719 57.839844 L 53.621094 61.105469 L 51.71875 61.664062 L 56.273438 58.183594 C 56.613281 58.070312 56.878906 57.890625 57.074219 57.644531 L 56.503906 58.410156 L 57.265625 57.464844 L 59.90625 55.019531 L 59.925781 54.851562 L 59.980469 54.953125 L 62.132812 52.960938 L 61.40625 54.214844 C 61.5625 54.210938 61.972656 53.808594 62.628906 52.996094 L 64.9375 48.101562 L 64.28125 49.242188 C 64.863281 48.683594 65.800781 46.03125 67.082031 41.28125 L 67.683594 37.46875 L 67.753906 31.742188 L 66.789062 28.136719 C 67.179688 28.765625 67.515625 29.472656 67.800781 30.265625 L 67.835938 29.433594 L 65.367188 23.195312 L 64.207031 22.117188 L 61.390625 18.242188 L 61.921875 20.292969 L 61.382812 19.375 C 61.320312 19.296875 61.367188 19.339844 61.515625 19.496094 C 61.402344 19.417969 61.148438 18.886719 60.761719 17.898438 C 59.792969 17.210938 58.695312 16.003906 57.472656 14.28125 L 53.945312 11.527344 L 54.101562 11.371094 L 50.796875 9.503906 L 50.554688 9.8125 L 49.214844 9.53125 L 42.738281 7.738281 L 42.242188 7.460938 L 40.34375 7.214844 L 36.273438 7.765625 L 39.476562 7.101562 L 37.042969 6.785156 L 39.789062 6.40625 C 41.511719 6.960938 42.421875 7.125 42.527344 6.890625 L 39.988281 6.378906 L 40.898438 6.257812 L 49.4375 8.238281 L 57.386719 12.695312 L 59.382812 14.535156 L 59.203125 13.804688 L 62.082031 17.160156 L 60.488281 14.796875 L 61.253906 15.5 C 62.214844 17.34375 63.4375 19.191406 64.921875 21.039062 L 66.414062 24.570312 L 66.167969 23.417969 L 65.402344 21.261719 L 61.644531 15.230469 L 63.054688 16.851562 L 60.777344 13.839844 C 60.226562 13.597656 60.210938 13.710938 60.730469 14.175781 L 58.375 12.324219 L 60.871094 14.679688 L 59.9375 14.046875 L 57.179688 11.753906 L 57.59375 11.710938 L 54.644531 9.394531 L 46.089844 5.695312 L 35.296875 5.171875 M 54.039062 66.109375 L 47.40625 67.992188 L 45.050781 68.644531 L 45.035156 68.816406 L 50.882812 67.964844 L 49.449219 68 L 54.039062 66.109375 M 29.125 66.703125 L 29.042969 66.847656 L 28.957031 66.996094 L 36.042969 69.105469 L 36.765625 68.96875 L 29.125 66.703125 M 31.585938 3.226562 L 28.765625 3.488281 L 23.003906 5.976562 L 16.742188 9.851562 L 15.296875 10.414062 L 10.214844 16.226562 L 12.144531 13.4375 C 9.960938 15.890625 8.464844 17.804688 7.648438 19.179688 L 5.339844 25.039062 L 3.246094 33.148438 L 2.863281 41.578125 L 4.015625 44.792969 L 4.246094 44.429688 L 3.941406 42.371094 L 5.792969 47.363281 L 8.902344 52.875 L 13.273438 58.878906 C 9.363281 53.976562 7.152344 51.03125 6.644531 50.046875 L 10.878906 56.414062 L 15.554688 61.335938 C 17.453125 62.535156 19.367188 63.855469 21.296875 65.292969 L 26.777344 67.65625 L 33.644531 69.511719 L 35.046875 69.636719 L 30.824219 68.597656 L 23.449219 66.019531 L 16.59375 61.523438 L 11.296875 56.070312 L 10.632812 54.980469 L 16.179688 60.851562 L 21.867188 64.644531 L 17.457031 61.542969 L 12.125 56.464844 L 9.269531 52.34375 L 5.679688 45.597656 L 4.398438 37.027344 L 5.417969 31.097656 L 6.667969 26.195312 L 10.351562 18.320312 L 11.757812 16.632812 L 7.785156 23.835938 L 6.0625 28.882812 L 8.289062 24.25 L 7.820312 24.59375 L 10.816406 18.40625 L 16.710938 11.566406 L 22.148438 8.40625 L 28.78125 5.367188 L 22.761719 7.632812 L 28.304688 5.289062 L 34.753906 3.996094 L 41.492188 4.378906 L 41.789062 4.175781 L 45.253906 4.945312 L 42.050781 3.867188 L 35.71875 3.421875 C 30.683594 3.9375 27.804688 4.34375 27.082031 4.632812 L 31.585938 3.226562 M 51.976562 69.589844 L 51.226562 69.710938 L 43.082031 70.792969 L 35.75 71.15625 L 44.605469 70.964844 L 49.636719 70.089844 L 51.738281 69.828125 L 51.976562 69.589844 M 48.601562 71.308594 L 40.246094 72.132812 L 44.34375 71.988281 L 45.988281 71.898438 L 48.601562 71.308594 M 40.246094 72.132812 L 40.101562 72.140625 L 39.957031 72.144531 L 40.066406 72.152344 C 40.125 72.144531 40.1875 72.140625 40.246094 72.132812 M 28.230469 71.109375 L 36.222656 72.277344 L 39.957031 72.144531 L 32.269531 71.628906 L 28.230469 71.109375 "/></g></g></svg>