<svg xmlns="http://www.w3.org/2000/svg" xmlns:xlink="http://www.w3.org/1999/xlink" width="500" zoomAndPan="magnify" viewBox="0 0 375 74.999997" height="100" preserveAspectRatio="xMidYMid meet" version="1.0"><defs><g/><clipPath id="7b35274f1d"><path d="M 2.871094 2.550781 L 72.621094 2.550781 L 72.621094 72.300781 L 2.871094 72.300781 Z M 2.871094 2.550781 " clip-rule="nonzero"/></clipPath></defs><g clip-path="url(#7b35274f1d)"><path fill="#ffffff" d="M 38.710938 3.082031 L 36.945312 3.230469 L 35.175781 3.378906 L 35.785156 3.421875 L 38.710938 3.082031 M 42.816406 6.886719 L 42.605469 6.902344 L 42.652344 6.910156 L 42.816406 6.886719 M 41.84375 6.953125 L 39.550781 7.109375 L 40.417969 7.222656 L 42.011719 7 L 41.84375 6.953125 M 36.332031 7.777344 L 36.398438 7.789062 L 36.15625 7.820312 L 36.332031 7.777344 M 33.527344 7.285156 L 32.464844 7.609375 L 31.40625 7.9375 L 32.019531 7.492188 L 33.527344 7.285156 M 34.085938 8.371094 L 34.050781 8.375 L 34.011719 8.375 L 33.753906 8.460938 C 33.863281 8.433594 33.976562 8.402344 34.085938 8.371094 M 39.839844 8.234375 L 42.191406 8.539062 L 42.296875 8.652344 L 39.839844 8.269531 L 37.382812 8.5 L 34.894531 8.351562 L 39.839844 8.234375 M 44.980469 8.933594 L 45.011719 8.945312 L 45.042969 8.953125 L 45.027344 8.953125 C 45.011719 8.945312 44.996094 8.941406 44.980469 8.933594 M 37.722656 2.59375 L 44.46875 4.183594 L 48.027344 4.699219 L 52.160156 6.59375 L 57.125 9.144531 L 51.003906 5.4375 L 49.160156 4.664062 L 43.207031 2.867188 L 37.722656 2.59375 M 45.296875 9.074219 L 45.542969 9.132812 L 45.65625 9.171875 L 45.445312 9.140625 L 45.296875 9.074219 M 42.652344 6.910156 L 42.011719 7 L 50.527344 9.3125 L 50.183594 9.117188 L 45.394531 7.464844 L 42.652344 6.910156 M 36.078125 7.746094 L 36.320312 7.777344 L 36.144531 7.824219 L 35.835938 7.867188 L 32.105469 8.808594 L 36.082031 7.839844 L 34.085938 8.371094 L 34.703125 8.359375 L 32.632812 8.945312 L 32.269531 8.980469 L 31.953125 9.121094 L 31.734375 9.140625 L 33.753906 8.460938 L 31.386719 9.09375 L 31.261719 9.183594 L 29.566406 9.335938 L 29.972656 9.15625 L 36.078125 7.746094 M 30.964844 9.402344 L 30.945312 9.414062 L 30.929688 9.425781 C 30.839844 9.453125 30.75 9.476562 30.660156 9.503906 C 30.761719 9.46875 30.863281 9.433594 30.964844 9.402344 M 50.527344 9.3125 L 50.710938 9.414062 L 50.890625 9.515625 L 50.960938 9.429688 L 50.527344 9.3125 M 38.164062 4.203125 L 30.753906 6.207031 L 24.375 9.191406 L 23.90625 9.527344 L 24.554688 9.265625 L 24.851562 9.050781 L 31.429688 6.085938 L 38.085938 4.351562 L 38.164062 4.203125 M 27.636719 6.816406 L 25.816406 7.03125 L 20.800781 9.707031 L 26.554688 7.066406 L 21.792969 9.484375 L 27.636719 6.816406 M 26.132812 9.195312 L 25.59375 9.765625 L 24.308594 10.179688 C 24.914062 9.851562 25.523438 9.523438 26.132812 9.195312 M 28.960938 10.074219 L 27.789062 10.566406 L 28.039062 10.386719 L 28.960938 10.074219 M 49.496094 10.527344 L 49.640625 10.601562 L 49.789062 10.675781 C 49.878906 10.695312 49.964844 10.710938 50.054688 10.726562 C 49.867188 10.660156 49.679688 10.59375 49.496094 10.527344 M 51.835938 11.011719 L 53.027344 11.273438 L 51.945312 11.074219 L 51.835938 11.011719 M 26.386719 11.585938 L 26.296875 11.652344 L 26.210938 11.71875 C 26.304688 11.675781 26.398438 11.632812 26.492188 11.589844 C 26.457031 11.589844 26.421875 11.589844 26.386719 11.585938 M 47.726562 10.105469 L 49.246094 10.441406 L 49.496094 10.527344 L 49.378906 10.46875 L 50.417969 10.699219 L 50.605469 10.828125 L 50.054688 10.726562 L 50.886719 11.019531 L 52.042969 11.816406 L 51.328125 11.453125 L 50.84375 11.117188 L 51.058594 11.316406 L 49.789062 10.675781 L 48.015625 10.351562 L 47.515625 10.109375 L 47.726562 10.105469 M 59.785156 11.984375 L 59.796875 11.996094 L 59.792969 11.988281 L 59.785156 11.984375 M 57.820312 11.71875 L 57.761719 11.722656 L 57.703125 11.730469 L 58.488281 12.34375 C 58.265625 12.136719 58.042969 11.925781 57.820312 11.71875 M 57.273438 11.773438 L 57.65625 12.125 L 58.039062 12.472656 C 57.75 12.246094 57.457031 12.015625 57.167969 11.785156 L 57.273438 11.773438 M 30.464844 9.765625 L 30.363281 9.839844 L 26.492188 11.589844 L 27.589844 11.609375 L 27.464844 11.914062 L 25.324219 12.363281 L 26.210938 11.71875 L 25.171875 12.183594 L 24.890625 12.453125 L 24.863281 12.457031 L 24.722656 12.535156 L 25.910156 11.578125 L 26.386719 11.585938 L 27.609375 10.699219 L 30.464844 9.765625 M 22.640625 10.636719 L 22.25 10.8125 L 21.863281 10.988281 C 21.039062 11.578125 20.214844 12.167969 19.394531 12.753906 L 20.96875 11.839844 L 22.640625 10.636719 M 19.394531 12.753906 L 18.566406 13.234375 L 18.351562 13.457031 L 18.363281 13.585938 L 18.710938 13.242188 L 19.394531 12.753906 M 54.648438 9.105469 L 60.429688 13.757812 L 60.46875 13.765625 L 57.878906 10.789062 L 54.648438 9.105469 M 23.855469 13.429688 L 23.515625 13.75 L 23.175781 14.074219 C 23.097656 14.109375 23.023438 14.144531 22.945312 14.179688 L 23.179688 13.921875 L 23.855469 13.429688 M 18.363281 13.585938 L 17.882812 14.058594 L 17.398438 14.535156 C 17.730469 14.332031 18.0625 14.132812 18.394531 13.933594 C 18.382812 13.816406 18.375 13.699219 18.363281 13.585938 M 18.964844 12.828125 L 17.492188 13.957031 L 16.65625 14.984375 L 17.164062 14.675781 L 18.351562 13.457031 L 18.347656 13.363281 L 18.566406 13.234375 L 18.964844 12.828125 M 20.324219 14.320312 L 19.8125 14.808594 L 19.304688 15.296875 L 19.863281 14.644531 L 20.324219 14.320312 M 59.796875 11.996094 L 61.945312 14.378906 L 64.09375 16.765625 C 63.425781 15.777344 62.757812 14.792969 62.09375 13.804688 L 59.796875 11.996094 M 51.636719 16.460938 L 51.773438 16.53125 L 51.910156 16.605469 L 52.371094 17.097656 L 52.152344 16.960938 L 51.636719 16.460938 M 18.925781 10.554688 L 16.902344 11.855469 L 12.261719 17.257812 L 15.976562 13.054688 L 19.367188 10.851562 L 18.925781 10.554688 M 57.867188 17.523438 L 58.070312 17.679688 L 57.882812 17.546875 L 57.867188 17.523438 M 63.175781 16.878906 L 63.792969 17.71875 L 64.414062 18.558594 L 64.203125 18.0625 L 63.175781 16.878906 M 60.070312 15.515625 L 60.265625 16.210938 L 60.257812 16.238281 L 60.09375 16.074219 L 60.878906 17.929688 L 61.582031 18.578125 L 60.070312 15.515625 M 16.671875 18.730469 L 16.605469 18.84375 L 16.601562 18.847656 L 16.671875 18.730469 M 52.972656 15.351562 L 54.847656 16.949219 L 56.71875 18.550781 L 56.933594 18.894531 L 53.820312 16.308594 L 52.972656 15.351562 M 59.496094 14.558594 L 60.613281 16.183594 L 61.726562 17.808594 L 62.503906 18.933594 C 62.140625 18.0625 61.773438 17.191406 61.40625 16.320312 L 59.496094 14.558594 M 62.203125 17.191406 L 62.839844 18.140625 L 63.476562 19.085938 L 63.015625 18.300781 L 62.203125 17.191406 M 61.632812 19.53125 L 61.636719 19.535156 L 61.636719 19.539062 C 61.644531 19.546875 61.65625 19.554688 61.664062 19.566406 L 61.632812 19.53125 M 57.152344 19.703125 L 57.171875 19.730469 L 57.1875 19.757812 L 57.160156 19.707031 L 57.152344 19.703125 M 21.402344 17.878906 L 21.167969 17.996094 C 20.449219 18.636719 19.730469 19.273438 19.011719 19.914062 C 19.65625 19.425781 20.304688 18.941406 20.953125 18.453125 L 21.402344 17.878906 M 40.328125 21.316406 L 40.21875 21.335938 L 40.109375 21.351562 L 40.148438 21.324219 C 40.207031 21.320312 40.269531 21.316406 40.328125 21.316406 M 42.78125 21.222656 L 42.296875 21.429688 L 41.808594 21.261719 L 42.78125 21.222656 M 36.128906 21.644531 L 35.171875 22.167969 L 34.425781 22.292969 L 34.742188 21.878906 L 36.128906 21.644531 M 68.484375 17.523438 L 69.4375 20.222656 L 70.386719 22.917969 C 70.296875 22.519531 70.207031 22.121094 70.117188 21.722656 L 68.484375 17.523438 M 60.570312 11.800781 L 63.921875 15.742188 L 65.875 19.480469 L 67.164062 22.296875 L 67.636719 22.941406 L 67.660156 23.007812 L 67.378906 21.460938 L 64.578125 16.5 L 60.570312 11.800781 M 33.023438 22.976562 L 32.707031 23.382812 L 32.6875 23.394531 L 32.082031 23.960938 L 33.023438 22.976562 M 21.878906 17.261719 L 21.402344 17.878906 L 22.378906 17.386719 L 20.953125 18.453125 L 20.222656 19.394531 L 19.738281 20.488281 L 17.222656 23.632812 L 16.242188 25.4375 L 16.542969 24.511719 L 19.621094 20.097656 L 16.195312 24.714844 L 18.625 20.398438 L 20.429688 18.09375 L 21.878906 17.261719 M 66.191406 22.972656 L 66.296875 23.460938 L 67.324219 26.359375 L 67.003906 24.726562 L 66.332031 23.128906 L 66.191406 22.972656 M 56.511719 18.648438 L 57.121094 19.199219 L 59.640625 23.308594 L 60.039062 24.453125 L 57.1875 19.757812 L 60.613281 26.089844 L 60.796875 26.609375 L 59.253906 24.433594 L 57.109375 19.855469 L 56.472656 19.230469 L 57.152344 19.703125 L 56.511719 18.648438 M 67.328125 26.359375 L 67.367188 26.570312 L 67.578125 27.070312 C 67.496094 26.832031 67.410156 26.597656 67.328125 26.359375 M 66.542969 24.613281 L 66.695312 25.34375 L 66.851562 26.074219 L 67.519531 27.335938 C 67.46875 27.078125 67.417969 26.824219 67.367188 26.570312 L 66.542969 24.613281 M 16.078125 24.921875 L 15.773438 25.894531 L 15.46875 26.863281 C 15.363281 27.058594 15.253906 27.257812 15.148438 27.453125 L 15.539062 25.878906 L 16.078125 24.921875 M 12.757812 27.382812 L 12.710938 27.554688 L 12.644531 27.675781 L 12.757812 27.382812 M 67.578125 27.070312 L 67.835938 27.796875 C 67.820312 27.714844 67.800781 27.636719 67.785156 27.554688 L 67.578125 27.070312 M 67.996094 28.84375 L 67.980469 29.164062 L 67.96875 29.488281 L 68.046875 29.683594 C 68.027344 29.40625 68.011719 29.125 67.996094 28.84375 M 28.832031 29.910156 L 28.800781 30.003906 C 28.796875 29.992188 28.796875 29.980469 28.792969 29.972656 C 28.808594 29.949219 28.820312 29.929688 28.832031 29.910156 M 29.625 28.578125 L 28.980469 31.183594 L 28.890625 30.597656 L 29.507812 28.773438 L 29.625 28.578125 M 28.914062 28.550781 L 28.132812 31.597656 L 28.601562 29.050781 L 28.914062 28.550781 M 68.046875 29.683594 L 68.074219 30.214844 L 68.105469 30.746094 L 68.625 31.996094 L 68.277344 30.269531 L 68.046875 29.683594 M 61.28125 28.480469 L 61.734375 30.621094 C 61.667969 30.445312 61.601562 30.273438 61.539062 30.101562 L 61.765625 32.457031 C 61.605469 31.132812 61.441406 29.804688 61.28125 28.480469 M 61.734375 27.265625 L 62.332031 29.164062 L 62.929688 31.058594 L 63.179688 32.664062 L 62.085938 28.675781 L 61.734375 27.265625 M 67.929688 30.320312 L 67.894531 31.15625 L 67.886719 31.800781 L 68.25 33.15625 L 68.105469 30.746094 L 67.929688 30.320312 M 5.746094 26.46875 L 5.726562 27.046875 L 5.707031 27.621094 C 5.75 27.976562 5.792969 28.332031 5.835938 28.6875 C 5.222656 30.410156 4.609375 32.128906 3.996094 33.847656 L 5.746094 26.46875 M 70.386719 22.917969 L 71.699219 28.761719 L 72.371094 34.796875 L 71.890625 27.902344 L 71.320312 26.128906 L 71.226562 25.300781 L 70.386719 22.917969 M 37.632812 34.949219 L 37.628906 35 L 37.628906 35.050781 L 37.621094 35.070312 C 37.625 35.027344 37.628906 34.988281 37.632812 34.949219 M 62.371094 35.25 L 62.386719 35.394531 L 62.402344 35.535156 L 62.378906 35.734375 L 62.332031 35.476562 L 62.371094 35.25 M 40.140625 35.496094 L 39.988281 35.917969 L 39.835938 36.335938 L 39.824219 36.039062 C 39.929688 35.855469 40.035156 35.675781 40.140625 35.496094 M 62.265625 35.839844 L 62.285156 36.539062 L 62.273438 36.644531 C 62.25 36.476562 62.230469 36.308594 62.210938 36.140625 L 62.265625 35.839844 M 70.367188 33.949219 L 70.445312 36.871094 L 70.546875 35.628906 C 70.488281 35.070312 70.425781 34.507812 70.367188 33.949219 M 63.480469 34.605469 L 63.824219 36.847656 C 63.808594 37.0625 63.792969 37.277344 63.777344 37.492188 L 63.480469 34.605469 M 40.265625 37.355469 L 40.082031 37.667969 L 39.898438 37.984375 L 39.882812 37.542969 C 40.007812 37.480469 40.136719 37.417969 40.265625 37.355469 M 52.898438 37.867188 L 52.90625 37.882812 L 52.910156 37.902344 L 52.851562 38.050781 C 52.867188 37.992188 52.882812 37.929688 52.898438 37.867188 M 62.121094 36.648438 L 62.238281 36.9375 L 62.085938 38.234375 C 62.0625 38.015625 62.042969 37.796875 62.023438 37.578125 C 62.019531 37.460938 62.019531 37.34375 62.015625 37.226562 L 62.121094 36.648438 M 62.550781 37.710938 L 62.640625 37.925781 L 62.652344 38.078125 L 62.53125 38.769531 L 62.492188 38.445312 L 62.566406 38.152344 C 62.5625 38.003906 62.554688 37.855469 62.550781 37.710938 M 39.378906 37.386719 L 39.660156 37.566406 L 39.730469 38.273438 L 39.117188 39.324219 L 39.378906 37.386719 M 69.921875 37.566406 L 69.855469 37.996094 L 69.789062 38.421875 C 69.730469 39.109375 69.671875 39.800781 69.613281 40.492188 C 69.742188 40.085938 69.867188 39.683594 69.996094 39.28125 L 69.921875 37.566406 M 61.292969 40.886719 L 61.292969 40.894531 C 61.292969 40.902344 61.289062 40.90625 61.289062 40.910156 C 61.289062 40.902344 61.292969 40.894531 61.292969 40.886719 M 62.355469 38.972656 L 62.398438 40.515625 L 62.441406 42.054688 C 62.363281 41.21875 62.285156 40.382812 62.207031 39.542969 C 62.257812 39.355469 62.304688 39.164062 62.355469 38.972656 M 26.796875 44.042969 L 26.855469 44.273438 L 26.917969 44.5 C 26.894531 44.484375 26.871094 44.46875 26.851562 44.453125 C 26.832031 44.316406 26.816406 44.179688 26.796875 44.042969 M 27.640625 44.84375 L 27.753906 45.003906 L 27.867188 45.167969 L 27.675781 45.035156 C 27.664062 44.96875 27.652344 44.90625 27.640625 44.84375 M 71.324219 36.414062 L 70.808594 37.421875 L 70.527344 39.996094 L 70.5625 41.230469 L 70.3125 41.988281 L 70.191406 43.070312 L 69.871094 45.4375 L 70.683594 43.015625 L 71.171875 42.464844 L 71.324219 36.414062 M 6.097656 33.5625 L 5.449219 37.902344 L 5.496094 39.5625 L 6.980469 45.65625 L 6.375 42.113281 L 5.816406 38.308594 L 6.097656 33.5625 M 25.851562 44.664062 L 26.136719 45.019531 L 26.363281 45.714844 L 26.152344 45.570312 L 25.851562 44.664062 M 27.074219 46.191406 L 27.085938 46.203125 L 27.09375 46.21875 L 27.074219 46.203125 L 27.074219 46.191406 M 26.988281 45.511719 L 27.246094 45.746094 L 27.429688 46.445312 L 27.195312 46.285156 L 27.0625 46.101562 L 26.988281 45.511719 M 28.457031 46.851562 L 28.519531 46.90625 L 28.578125 46.960938 L 28.738281 47.347656 L 28.664062 47.296875 L 28.457031 46.851562 M 12.964844 47.34375 L 12.972656 47.355469 L 12.972656 47.367188 L 12.964844 47.34375 M 5.976562 44.171875 L 6.835938 46.09375 L 7.699219 48.011719 C 7.707031 48.019531 7.714844 48.027344 7.722656 48.035156 L 5.976562 44.171875 M 66.992188 43.738281 L 66.652344 44.585938 L 65.546875 46.921875 L 65.195312 48.097656 L 65.664062 48.230469 L 66.992188 43.738281 M 58.683594 46.753906 L 58.214844 47.824219 L 57.542969 49.015625 C 57.921875 48.261719 58.300781 47.507812 58.683594 46.753906 M 70.445312 36.871094 L 69.941406 42.929688 L 68.828125 45.875 L 67.59375 49.441406 L 68.09375 48.695312 L 70.3125 41.988281 L 70.527344 39.996094 L 70.445312 36.871094 M 13.140625 46.773438 L 13.949219 48.277344 L 14.753906 49.785156 C 14.585938 49.570312 14.417969 49.355469 14.246094 49.140625 L 13.140625 46.773438 M 27.207031 49.984375 L 28.574219 51.257812 L 28.316406 51.234375 L 27.527344 50.507812 L 27.207031 49.984375 M 26.832031 47.617188 L 27.007812 47.703125 L 27.476562 49.144531 L 29.179688 51.308594 L 29.019531 51.296875 L 27.523438 49.691406 L 26.832031 47.617188 M 28.867188 50.765625 L 29.179688 51.074219 L 29.378906 51.328125 L 29.285156 51.320312 L 28.867188 50.765625 M 33.066406 51.320312 L 33.640625 51.621094 L 33.300781 51.675781 L 33.066406 51.320312 M 29.636719 51.675781 L 29.644531 51.679688 L 29.652344 51.679688 L 29.664062 51.695312 L 29.636719 51.675781 M 67.59375 49.4375 L 67.234375 49.980469 L 66.875 50.519531 C 66.808594 51.042969 66.746094 51.566406 66.679688 52.089844 C 66.984375 51.207031 67.289062 50.324219 67.59375 49.4375 M 34.121094 52.019531 L 34.308594 52.242188 L 34.203125 52.25 L 33.59375 52.121094 L 33.59375 52.117188 L 34.121094 52.019531 M 14.753906 51.308594 L 14.957031 51.5625 L 15.398438 52.535156 L 14.753906 51.308594 M 63.683594 48.398438 L 61.214844 52.625 L 60.96875 52.746094 L 61.433594 51.804688 L 63.683594 48.398438 M 30.777344 53.308594 L 31.25 53.746094 L 31.613281 54.21875 L 31.546875 54.195312 L 31.21875 53.894531 L 30.777344 53.308594 M 63.308594 54.273438 L 63.277344 54.324219 L 63.242188 54.375 C 63.25 54.371094 63.257812 54.363281 63.265625 54.355469 L 63.308594 54.273438 M 16.933594 54.203125 L 17.050781 54.285156 L 17.171875 54.367188 L 17.195312 54.398438 C 17.109375 54.332031 17.023438 54.269531 16.933594 54.203125 M 60.738281 55.394531 L 60.488281 55.679688 L 60.453125 55.699219 L 60.429688 55.660156 L 60.738281 55.394531 M 66.382812 48.464844 L 63.308594 54.273438 L 65.378906 51.109375 L 64.488281 53.296875 L 63.265625 54.355469 L 62.707031 55.410156 L 62.363281 55.71875 L 63.242188 54.375 L 62.921875 54.652344 L 66.382812 48.464844 M 58.199219 56.558594 L 58.074219 56.722656 L 57.945312 56.886719 C 57.9375 56.890625 57.933594 56.894531 57.925781 56.898438 L 58.199219 56.558594 M 20.699219 57.015625 L 21.136719 57.238281 L 21.195312 57.300781 L 20.785156 57.082031 L 20.699219 57.015625 M 58.367188 57.441406 L 57.601562 58.191406 C 57.542969 58.214844 57.484375 58.234375 57.421875 58.253906 C 57.738281 57.980469 58.050781 57.710938 58.367188 57.441406 M 21.484375 58.191406 L 22.679688 58.9375 L 22.710938 58.972656 L 21.488281 58.199219 L 21.484375 58.191406 M 50.296875 59.339844 L 47.726562 60.6875 L 48.683594 60.117188 L 50.296875 59.339844 M 61.949219 54.011719 L 61.222656 54.839844 L 61.523438 54.316406 L 60.324219 55.464844 L 60.097656 55.058594 L 60.023438 55.125 L 59.980469 55.542969 L 58.894531 56.824219 L 57.378906 58.269531 L 56.613281 58.523438 L 56.476562 58.6875 L 56.601562 58.527344 L 56.070312 58.703125 L 54.953125 59.4375 L 53.152344 60.875 L 55.699219 59.738281 L 57.117188 58.515625 L 56.71875 58.894531 L 59.722656 56.550781 L 58.5 57.953125 L 59.234375 57.445312 L 58.132812 58.773438 L 60.628906 55.84375 L 61.03125 55.535156 L 62.035156 54.253906 L 61.949219 54.011719 M 71.890625 46.664062 L 68.894531 53.363281 L 67.390625 55.808594 L 67.289062 57.136719 L 63.476562 61.09375 L 64.523438 60.585938 L 68.664062 55.984375 L 70.988281 52.40625 L 69.980469 53.472656 L 71.890625 46.664062 M 52.085938 60.351562 L 51.910156 60.515625 L 50.722656 61.109375 L 50.457031 61.128906 L 52.085938 60.351562 M 11.378906 57.894531 L 11.546875 58.464844 L 11.714844 59.039062 L 14.441406 61.464844 C 14.375 61.304688 14.308594 61.148438 14.242188 60.988281 C 13.289062 59.957031 12.332031 58.925781 11.378906 57.894531 M 45.359375 61.289062 L 46.257812 61.539062 L 45.707031 61.769531 L 45.253906 61.652344 L 44.710938 61.660156 L 44.5 61.59375 L 45.359375 61.289062 M 25.832031 62.390625 L 25.863281 62.40625 L 25.832031 62.390625 M 48.558594 62.195312 L 47.40625 62.773438 L 46.117188 62.757812 L 46.5625 62.609375 L 48.558594 62.195312 M 42.960938 62.355469 L 43.902344 62.476562 L 42.621094 62.789062 L 41.351562 62.703125 L 42.164062 62.417969 L 42.960938 62.355469 M 63.027344 58.960938 L 62.613281 59.164062 L 62.203125 59.371094 L 57.632812 63.601562 C 59.429688 62.054688 61.226562 60.507812 63.027344 58.960938 M 71.796875 53.5625 L 70.308594 55.5625 L 68.824219 57.5625 L 62.894531 63.632812 L 67.640625 59.457031 L 71.796875 53.5625 M 43.152344 63.777344 L 43.164062 63.78125 L 43.175781 63.78125 C 43.164062 63.78125 43.152344 63.78125 43.140625 63.785156 L 43.152344 63.777344 M 62.894531 63.632812 L 62.765625 63.746094 L 62.640625 63.855469 C 62.667969 63.839844 62.695312 63.828125 62.722656 63.8125 C 62.777344 63.75 62.835938 63.691406 62.894531 63.632812 M 7.722656 48.035156 L 9.15625 51.214844 L 14.125 57.722656 L 17.996094 61.351562 L 21.398438 63.570312 L 22.820312 64 L 20.351562 62.320312 L 18.242188 60.378906 L 16.296875 59.1875 L 10.789062 52.761719 L 7.964844 48.277344 L 7.722656 48.035156 M 25.527344 62.019531 L 25.863281 62.40625 L 27.257812 63.015625 L 27.207031 63 L 25.863281 62.40625 L 25.878906 62.425781 L 26.785156 62.878906 L 26.101562 62.679688 L 26.316406 62.929688 L 29.433594 64.128906 L 29.894531 64.191406 L 28.9375 63.765625 L 28.96875 63.761719 L 29.96875 64.199219 L 30.238281 64.238281 L 29.296875 63.722656 L 29.570312 63.6875 L 28.859375 63.480469 L 28.207031 63.125 L 25.527344 62.019531 M 33.632812 64.691406 L 33.671875 64.703125 L 33.589844 64.691406 L 33.589844 64.695312 C 33.605469 64.691406 33.617188 64.691406 33.632812 64.691406 M 33.6875 64.6875 L 38.910156 64.847656 L 39.25 64.882812 L 36 65.019531 L 33.972656 64.746094 L 33.675781 64.691406 L 33.6875 64.6875 M 19.773438 59.070312 L 25.246094 62.429688 L 26.101562 62.679688 L 25.878906 62.425781 L 22.921875 60.941406 L 25.527344 62.019531 L 24.929688 61.328125 L 28.207031 63.125 L 29.570312 63.6875 L 32.53125 64.550781 L 30.238281 64.238281 L 30.96875 64.636719 L 29.96875 64.199219 L 29.894531 64.191406 L 31.859375 65.058594 L 29.433594 64.128906 L 28.1875 63.957031 L 22.371094 61.035156 L 19.773438 59.070312 M 54.140625 63.535156 L 51.289062 64.847656 L 51.144531 65.125 L 48.785156 65.496094 L 49.554688 64.976562 L 51.367188 64.433594 L 51.742188 64.214844 L 54.140625 63.535156 M 57.734375 64.757812 L 55.9375 65.496094 L 54.140625 66.238281 L 55.304688 65.90625 C 56.117188 65.523438 56.925781 65.140625 57.734375 64.757812 M 32.46875 65.292969 L 40.390625 66.824219 L 42.726562 67.164062 L 40.929688 67.414062 L 34.65625 66.132812 L 32.46875 65.292969 M 62.640625 63.855469 L 56.1875 67.558594 L 60.976562 65.320312 L 62.640625 63.855469 M 35.363281 5.175781 L 30.566406 7.054688 C 30.429688 6.902344 28.425781 7.636719 24.554688 9.265625 L 22.640625 10.636719 L 24.347656 9.871094 C 21.558594 11.414062 19.839844 12.496094 19.191406 13.113281 L 14.074219 18.539062 L 17.398438 14.535156 L 15.605469 16.273438 L 16.65625 14.984375 L 15.808594 15.25 L 20.199219 11.5625 L 18.964844 12.828125 L 20.65625 11.53125 C 21.179688 11.476562 22.265625 10.808594 23.90625 9.527344 L 22.429688 10.121094 L 23.046875 9.257812 L 19.835938 11.371094 L 14.914062 15.980469 L 11.066406 21.328125 L 7.738281 29.589844 L 9.980469 22.714844 L 9.601562 22.652344 L 8.652344 24.53125 L 7.214844 29.792969 L 6.253906 36.46875 L 6.984375 43.609375 L 9.980469 50.128906 L 14.089844 56.058594 L 19.3125 60.933594 L 25.542969 64.699219 L 32.460938 66.9375 L 39.5 67.566406 C 37.367188 67.695312 34.859375 67.660156 31.980469 67.46875 L 39.582031 67.988281 L 45.996094 67.46875 L 47.109375 66.898438 L 55.980469 63.988281 L 62.203125 59.371094 L 67.105469 54.828125 L 69.65625 49.515625 L 63.8125 56.683594 L 58.613281 61.367188 L 57.222656 61.621094 L 61.101562 58.929688 L 63.890625 56.269531 C 64.191406 55.59375 64.234375 55.261719 64.019531 55.277344 L 63.269531 55.910156 L 66.875 50.519531 L 69.175781 44.351562 L 69.839844 41.355469 L 69.519531 41.585938 L 69.613281 40.492188 L 69.324219 41.394531 L 69.789062 38.421875 L 69.898438 37.097656 L 69.921875 37.566406 L 70.171875 35.957031 C 69.976562 34.828125 69.90625 32.910156 69.960938 30.210938 L 70.367188 33.949219 L 70.273438 30.554688 L 69.863281 29.289062 L 69.875 29.402344 L 67.660156 23.007812 L 67.773438 23.636719 L 67.164062 22.296875 L 64.414062 18.558594 L 66.332031 23.128906 L 66.789062 23.625 L 67.785156 27.554688 L 69.617188 31.585938 L 69.714844 32.933594 L 69.226562 33.921875 L 68.902344 38.046875 C 68.96875 35.839844 68.75 34.207031 68.25 33.15625 L 68.378906 35.40625 L 67.460938 42.15625 L 66.992188 43.738281 L 68.226562 40.675781 L 66.050781 47.503906 L 66.558594 46.730469 L 68.859375 38.582031 L 68.769531 39.71875 L 66.773438 46.789062 L 63.214844 53.71875 L 64.105469 51.601562 L 62.035156 54.253906 L 62.183594 54.667969 L 61.03125 55.535156 L 59.257812 57.804688 C 58.257812 58.761719 57.710938 59.148438 57.617188 58.960938 L 58.5 57.953125 L 53.722656 61.222656 L 51.820312 61.785156 L 56.378906 58.296875 C 56.722656 58.183594 56.988281 58.003906 57.183594 57.753906 L 56.613281 58.523438 L 57.378906 57.578125 L 60.023438 55.125 L 60.039062 54.957031 L 60.097656 55.058594 L 62.25 53.0625 L 61.523438 54.316406 C 61.683594 54.316406 62.089844 53.910156 62.75 53.097656 L 65.0625 48.195312 L 64.402344 49.335938 C 64.988281 48.777344 65.925781 46.117188 67.210938 41.359375 L 67.8125 37.539062 L 67.886719 31.800781 L 66.917969 28.191406 C 67.308594 28.816406 67.644531 29.527344 67.929688 30.320312 L 67.96875 29.488281 L 65.496094 23.238281 L 64.332031 22.15625 L 61.507812 18.273438 L 62.042969 20.328125 L 61.5 19.40625 C 61.441406 19.332031 61.484375 19.371094 61.632812 19.53125 C 61.519531 19.453125 61.265625 18.917969 60.878906 17.929688 C 59.90625 17.238281 58.808594 16.03125 57.582031 14.304688 L 54.046875 11.542969 L 54.207031 11.390625 L 50.890625 9.515625 L 50.648438 9.828125 L 49.308594 9.546875 L 42.820312 7.75 L 42.320312 7.472656 L 40.417969 7.222656 L 36.34375 7.777344 L 39.550781 7.109375 L 37.113281 6.792969 L 39.863281 6.414062 C 41.589844 6.96875 42.503906 7.132812 42.605469 6.902344 L 40.066406 6.386719 L 40.972656 6.261719 L 49.53125 8.25 L 57.5 12.714844 L 59.496094 14.558594 L 59.320312 13.824219 L 62.203125 17.191406 L 60.605469 14.820312 L 61.371094 15.523438 C 62.335938 17.375 63.5625 19.226562 65.046875 21.078125 L 66.542969 24.613281 L 66.296875 23.460938 L 65.527344 21.300781 L 61.761719 15.253906 L 63.175781 16.878906 L 60.894531 13.863281 C 60.34375 13.621094 60.328125 13.734375 60.84375 14.199219 L 58.488281 12.34375 L 60.988281 14.707031 L 60.050781 14.066406 L 57.289062 11.773438 L 57.703125 11.730469 L 54.75 9.40625 L 46.175781 5.703125 L 35.363281 5.175781 M 54.140625 66.238281 L 47.496094 68.125 L 45.136719 68.777344 L 45.121094 68.949219 L 50.980469 68.097656 L 49.542969 68.132812 L 54.140625 66.238281 M 29.179688 66.832031 L 29.09375 66.980469 L 29.011719 67.125 L 36.109375 69.242188 L 36.832031 69.101562 L 29.179688 66.832031 M 31.644531 3.230469 L 28.820312 3.492188 L 23.046875 5.984375 L 16.769531 9.867188 L 15.324219 10.429688 L 10.230469 16.253906 L 12.164062 13.460938 C 9.976562 15.917969 8.472656 17.835938 7.65625 19.214844 L 5.34375 25.085938 L 3.246094 33.210938 L 2.863281 41.65625 L 4.019531 44.875 L 4.25 44.515625 L 3.945312 42.453125 L 5.800781 47.453125 L 8.917969 52.976562 L 13.292969 58.992188 C 9.375 54.078125 7.160156 51.128906 6.652344 50.144531 L 10.894531 56.523438 L 15.582031 61.457031 C 17.484375 62.65625 19.402344 63.976562 21.335938 65.417969 L 26.824219 67.789062 L 33.707031 69.648438 L 35.109375 69.773438 L 30.882812 68.730469 L 23.492188 66.144531 L 16.621094 61.644531 L 11.316406 56.175781 L 10.648438 55.085938 L 16.207031 60.96875 L 21.90625 64.769531 L 17.484375 61.660156 L 12.144531 56.570312 L 9.285156 52.445312 L 5.683594 45.683594 L 4.402344 37.097656 L 5.421875 31.152344 L 6.675781 26.246094 L 10.367188 18.351562 L 11.777344 16.660156 L 7.792969 23.878906 L 6.070312 28.933594 L 8.300781 24.296875 L 7.828125 24.640625 L 10.835938 18.4375 L 16.738281 11.582031 L 22.1875 8.417969 L 28.832031 5.375 L 22.804688 7.644531 L 28.355469 5.296875 L 34.816406 4 L 41.570312 4.382812 L 41.867188 4.179688 L 45.339844 4.949219 L 42.132812 3.871094 L 35.785156 3.421875 C 30.738281 3.941406 27.855469 4.347656 27.132812 4.636719 L 31.644531 3.230469 M 52.074219 69.722656 L 51.324219 69.847656 L 43.164062 70.929688 L 35.816406 71.292969 L 44.691406 71.101562 L 49.730469 70.226562 L 51.835938 69.964844 L 52.074219 69.722656 M 48.695312 71.445312 L 40.320312 72.273438 L 44.429688 72.128906 L 46.078125 72.039062 L 48.695312 71.445312 M 40.320312 72.273438 L 40.175781 72.28125 L 40.03125 72.285156 L 40.140625 72.292969 C 40.203125 72.285156 40.261719 72.28125 40.320312 72.273438 M 28.28125 71.246094 L 36.289062 72.417969 L 40.03125 72.285156 L 32.332031 71.769531 L 28.28125 71.246094 " fill-opacity="1" fill-rule="nonzero"/></g><g fill="#ffffff" fill-opacity="1"><g transform="translate(80.80851, 53.999995)"><g><path d="M 22.671875 -12.953125 L 9.265625 -12.953125 L 9.265625 0 L 3.203125 0 L 3.203125 -31.28125 L 24.34375 -31.28125 L 24.34375 -26.359375 L 9.265625 -26.359375 L 9.265625 -17.859375 L 22.671875 -17.859375 Z M 22.671875 -12.953125 "/></g></g></g><g fill="#ffffff" fill-opacity="1"><g transform="translate(107.208116, 53.999995)"><g><path d="M 13.421875 -11.6875 L 8.859375 -11.6875 L 8.859375 0 L 2.8125 0 L 2.8125 -31.28125 L 13.296875 -31.28125 C 15.035156 -31.28125 16.601562 -31.078125 18 -30.671875 C 19.40625 -30.265625 20.601562 -29.664062 21.59375 -28.875 C 22.59375 -28.082031 23.359375 -27.097656 23.890625 -25.921875 C 24.429688 -24.753906 24.703125 -23.394531 24.703125 -21.84375 C 24.703125 -20.726562 24.566406 -19.722656 24.296875 -18.828125 C 24.035156 -17.929688 23.660156 -17.128906 23.171875 -16.421875 C 22.679688 -15.710938 22.085938 -15.09375 21.390625 -14.5625 C 20.691406 -14.03125 19.914062 -13.570312 19.0625 -13.1875 L 25.78125 -0.28125 L 25.78125 0 L 19.3125 0 Z M 8.859375 -16.59375 L 13.328125 -16.59375 C 15.023438 -16.59375 16.335938 -17.023438 17.265625 -17.890625 C 18.191406 -18.753906 18.65625 -19.9375 18.65625 -21.4375 C 18.65625 -23 18.203125 -24.210938 17.296875 -25.078125 C 16.390625 -25.953125 15.054688 -26.390625 13.296875 -26.390625 L 8.859375 -26.390625 Z M 8.859375 -16.59375 "/></g></g></g><g fill="#ffffff" fill-opacity="1"><g transform="translate(133.607722, 53.999995)"><g><path d="M 18.203125 -6.53125 L 8.8125 -6.53125 L 6.96875 0 L 0.609375 0 L 10.84375 -31.28125 L 16.328125 -31.28125 L 26.390625 0 L 20.03125 0 Z M 10.296875 -11.671875 L 16.78125 -11.671875 L 13.578125 -23.1875 Z M 10.296875 -11.671875 "/></g></g></g><g fill="#ffffff" fill-opacity="1"><g transform="translate(160.007329, 53.999995)"><g><path d="M 24.53125 -9.796875 C 24.4375 -8.222656 24.097656 -6.804688 23.515625 -5.546875 C 22.929688 -4.285156 22.148438 -3.207031 21.171875 -2.3125 C 20.203125 -1.425781 19.046875 -0.742188 17.703125 -0.265625 C 16.359375 0.210938 14.867188 0.453125 13.234375 0.453125 C 11.390625 0.453125 9.75 0.113281 8.3125 -0.5625 C 6.882812 -1.25 5.679688 -2.203125 4.703125 -3.421875 C 3.734375 -4.648438 2.988281 -6.125 2.46875 -7.84375 C 1.957031 -9.5625 1.703125 -11.453125 1.703125 -13.515625 L 1.703125 -17.71875 C 1.703125 -19.800781 1.972656 -21.703125 2.515625 -23.421875 C 3.054688 -25.140625 3.828125 -26.613281 4.828125 -27.84375 C 5.835938 -29.070312 7.050781 -30.023438 8.46875 -30.703125 C 9.894531 -31.390625 11.5 -31.734375 13.28125 -31.734375 C 15 -31.734375 16.523438 -31.488281 17.859375 -31 C 19.203125 -30.507812 20.34375 -29.8125 21.28125 -28.90625 C 22.226562 -28.007812 22.972656 -26.910156 23.515625 -25.609375 C 24.066406 -24.304688 24.414062 -22.835938 24.5625 -21.203125 L 18.546875 -21.203125 C 18.484375 -22.140625 18.34375 -22.957031 18.125 -23.65625 C 17.90625 -24.351562 17.582031 -24.9375 17.15625 -25.40625 C 16.726562 -25.875 16.195312 -26.222656 15.5625 -26.453125 C 14.925781 -26.691406 14.164062 -26.8125 13.28125 -26.8125 C 12.34375 -26.8125 11.53125 -26.609375 10.84375 -26.203125 C 10.15625 -25.804688 9.585938 -25.222656 9.140625 -24.453125 C 8.691406 -23.679688 8.359375 -22.734375 8.140625 -21.609375 C 7.929688 -20.484375 7.828125 -19.203125 7.828125 -17.765625 L 7.828125 -13.515625 C 7.828125 -10.429688 8.257812 -8.148438 9.125 -6.671875 C 9.988281 -5.203125 11.359375 -4.46875 13.234375 -4.46875 C 14.804688 -4.46875 16.050781 -4.882812 16.96875 -5.71875 C 17.882812 -6.5625 18.394531 -7.921875 18.5 -9.796875 Z M 24.53125 -9.796875 "/></g></g></g><g fill="#ffffff" fill-opacity="1"><g transform="translate(186.406935, 53.999995)"><g><path d="M 25.796875 -26.359375 L 16.15625 -26.359375 L 16.15625 0 L 10.09375 0 L 10.09375 -26.359375 L 0.578125 -26.359375 L 0.578125 -31.28125 L 25.796875 -31.28125 Z M 25.796875 -26.359375 "/></g></g></g><g fill="#ffffff" fill-opacity="1"><g transform="translate(212.806541, 53.999995)"><g><path d="M 18.203125 -6.53125 L 8.8125 -6.53125 L 6.96875 0 L 0.609375 0 L 10.84375 -31.28125 L 16.328125 -31.28125 L 26.390625 0 L 20.03125 0 Z M 10.296875 -11.671875 L 16.78125 -11.671875 L 13.578125 -23.1875 Z M 10.296875 -11.671875 "/></g></g></g><g fill="#ffffff" fill-opacity="1"><g transform="translate(239.206148, 53.999995)"><g><path d="M 9.28125 -4.875 L 23.9375 -4.875 L 23.9375 0 L 3.21875 0 L 3.21875 -31.28125 L 9.28125 -31.28125 Z M 9.28125 -4.875 "/></g></g></g><g fill="#ffffff" fill-opacity="1"><g transform="translate(265.613182, 53.999995)"><g><path d="M 18.40625 -31.28125 L 22.46875 -31.28125 L 22.46875 -9.515625 C 22.445312 -8.066406 22.171875 -6.734375 21.640625 -5.515625 C 21.117188 -4.304688 20.40625 -3.257812 19.5 -2.375 C 18.601562 -1.488281 17.539062 -0.796875 16.3125 -0.296875 C 15.09375 0.191406 13.757812 0.4375 12.3125 0.4375 C 10.851562 0.4375 9.523438 0.210938 8.328125 -0.234375 C 7.128906 -0.679688 6.085938 -1.316406 5.203125 -2.140625 C 4.328125 -2.960938 3.625 -3.957031 3.09375 -5.125 C 2.5625 -6.289062 2.234375 -7.597656 2.109375 -9.046875 L 6.140625 -9.046875 C 6.179688 -8.171875 6.359375 -7.359375 6.671875 -6.609375 C 6.984375 -5.867188 7.398438 -5.222656 7.921875 -4.671875 C 8.453125 -4.117188 9.085938 -3.691406 9.828125 -3.390625 C 10.566406 -3.085938 11.394531 -2.9375 12.3125 -2.9375 C 13.257812 -2.9375 14.101562 -3.113281 14.84375 -3.46875 C 15.59375 -3.820312 16.226562 -4.296875 16.75 -4.890625 C 17.269531 -5.492188 17.671875 -6.191406 17.953125 -6.984375 C 18.234375 -7.785156 18.382812 -8.628906 18.40625 -9.515625 Z M 18.40625 -31.28125 "/></g></g></g><g fill="#ffffff" fill-opacity="1"><g transform="translate(292.012788, 53.999995)"><g><path d="M 18.671875 -8.09375 L 8.234375 -8.09375 L 5.71875 0 L 1.734375 0 L 11.84375 -31.28125 L 15.171875 -31.28125 L 25.09375 0 L 21.140625 0 Z M 9.296875 -11.5625 L 17.625 -11.5625 L 13.5 -25.140625 Z M 9.296875 -11.5625 "/></g></g></g><g fill="#ffffff" fill-opacity="1"><g transform="translate(318.412395, 53.999995)"><g><path d="M 6.984375 -3.375 L 23.1875 -3.375 L 23.1875 0 L 2.5 0 L 2.453125 -3.09375 L 18.03125 -27.890625 L 2.734375 -27.890625 L 2.734375 -31.28125 L 22.5625 -31.28125 L 22.609375 -28.25 Z M 6.984375 -3.375 "/></g></g></g><g fill="#ffffff" fill-opacity="1"><g transform="translate(344.812001, 53.999995)"><g><path d="M 6.984375 -3.375 L 23.1875 -3.375 L 23.1875 0 L 2.5 0 L 2.453125 -3.09375 L 18.03125 -27.890625 L 2.734375 -27.890625 L 2.734375 -31.28125 L 22.5625 -31.28125 L 22.609375 -28.25 Z M 6.984375 -3.375 "/></g></g></g></svg>